<svg xmlns="http://www.w3.org/2000/svg" xmlns:xlink="http://www.w3.org/1999/xlink" width="500" zoomAndPan="magnify" viewBox="0 0 375 374.999991" height="500" preserveAspectRatio="xMidYMid meet" version="1.0"><defs><g/></defs><rect x="-37.5" width="450" fill="#ffffff" y="-37.499999" height="449.999989" fill-opacity="1"/><rect x="-37.5" width="450" fill="#ffffff" y="-37.499999" height="449.999989" fill-opacity="1"/><g fill="#000000" fill-opacity="1"><g transform="translate(16.022973, 218.723695)"><g><path d="M 189.140625 2.890625 C 189.253906 2.890625 189.375 2.890625 189.5 2.890625 C 189.78125 2.890625 190.0625 2.921875 190.34375 2.984375 C 190.632812 3.054688 190.898438 3.210938 191.140625 3.453125 C 191.203125 3.523438 191.257812 3.613281 191.3125 3.71875 C 191.363281 3.820312 191.390625 3.9375 191.390625 4.0625 C 191.359375 4.132812 191.304688 4.222656 191.234375 4.328125 C 191.171875 4.429688 191.101562 4.507812 191.03125 4.5625 C 190.695312 4.632812 190.351562 4.65625 190 4.625 C 189.832031 4.625 189.648438 4.625 189.453125 4.625 C 187.410156 4.488281 185.367188 4.335938 183.328125 4.171875 C 179.554688 3.898438 175.796875 3.640625 172.046875 3.390625 C 156.566406 2.410156 141.28125 1.878906 126.1875 1.796875 C 111.101562 1.710938 95.804688 1.921875 80.296875 2.421875 C 78.660156 2.460938 77.023438 2.566406 75.390625 2.734375 C 73.847656 2.835938 72.296875 2.910156 70.734375 2.953125 C 69.234375 3.003906 68.054688 3.660156 67.203125 4.921875 C 63.359375 10.023438 59.191406 14.863281 54.703125 19.4375 C 51.546875 22.664062 48.253906 25.5625 44.828125 28.125 C 41.410156 30.695312 37.8125 32.738281 34.03125 34.25 C 30.257812 35.769531 26.320312 36.519531 22.21875 36.5 C 18.113281 36.476562 13.832031 35.46875 9.375 33.46875 C 7.300781 32.570312 5.46875 31.28125 3.875 29.59375 C 1.289062 26.65625 1 23.488281 3 20.09375 C 4.4375 17.90625 6.273438 16.097656 8.515625 14.671875 C 11.910156 12.421875 15.875 10.515625 20.40625 8.953125 C 24.9375 7.398438 29.71875 6.132812 34.75 5.15625 C 39.789062 4.1875 44.742188 3.414062 49.609375 2.84375 C 54.472656 2.269531 58.910156 1.84375 62.921875 1.5625 C 64.554688 1.425781 65.816406 0.710938 66.703125 -0.578125 C 70.003906 -5.367188 73.523438 -10.976562 77.265625 -17.40625 C 81.003906 -23.84375 84.597656 -30.609375 88.046875 -37.703125 C 91.503906 -44.804688 94.476562 -51.71875 96.96875 -58.4375 C 99.457031 -65.15625 101.128906 -71.207031 101.984375 -76.59375 C 102.222656 -78.21875 102.164062 -79.847656 101.8125 -81.484375 C 101.144531 -84.097656 99.507812 -85.59375 96.90625 -85.96875 C 96.539062 -86.007812 96.191406 -86.03125 95.859375 -86.03125 C 95.078125 -86.03125 94.304688 -85.925781 93.546875 -85.71875 C 90.179688 -85.03125 86.03125 -83.503906 81.09375 -81.140625 C 76.15625 -78.773438 70.972656 -75.832031 65.546875 -72.3125 C 60.117188 -68.789062 54.921875 -64.9375 49.953125 -60.75 C 44.992188 -56.570312 40.796875 -52.320312 37.359375 -48 C 33.921875 -43.675781 31.738281 -39.488281 30.8125 -35.4375 C 30.070312 -31.96875 31.300781 -29.4375 34.5 -27.84375 C 37.050781 -26.707031 39.78125 -26.207031 42.6875 -26.34375 C 45.59375 -26.488281 48.375 -26.828125 51.03125 -27.359375 C 52.664062 -27.710938 54.300781 -27.890625 55.9375 -27.890625 C 56.613281 -27.890625 57.28125 -27.851562 57.9375 -27.78125 C 58.101562 -27.78125 58.257812 -27.726562 58.40625 -27.625 C 58.550781 -27.53125 58.597656 -27.359375 58.546875 -27.109375 C 58.472656 -26.703125 58.25 -26.484375 57.875 -26.453125 C 55.632812 -26.242188 53.367188 -25.953125 51.078125 -25.578125 C 48.296875 -25.078125 45.507812 -24.75 42.71875 -24.59375 C 39.925781 -24.4375 37.164062 -24.722656 34.4375 -25.453125 C 33.039062 -25.816406 31.75 -26.390625 30.5625 -27.171875 C 27.707031 -29.078125 26.550781 -31.734375 27.09375 -35.140625 C 27.90625 -39.460938 30.109375 -43.953125 33.703125 -48.609375 C 37.296875 -53.265625 41.710938 -57.796875 46.953125 -62.203125 C 52.191406 -66.609375 57.71875 -70.648438 63.53125 -74.328125 C 69.351562 -78.003906 74.898438 -81.035156 80.171875 -83.421875 C 85.441406 -85.804688 89.898438 -87.285156 93.546875 -87.859375 C 94.429688 -88.023438 95.320312 -88.09375 96.21875 -88.0625 C 97.769531 -88.09375 99.28125 -87.882812 100.75 -87.4375 C 103.4375 -86.582031 105.132812 -84.765625 105.84375 -81.984375 C 106.457031 -78.992188 106.09375 -74.921875 104.75 -69.765625 C 103.40625 -64.609375 101.421875 -58.863281 98.796875 -52.53125 C 96.179688 -46.207031 93.269531 -39.847656 90.0625 -33.453125 C 86.863281 -27.054688 83.742188 -21.175781 80.703125 -15.8125 C 77.660156 -10.445312 75.035156 -6.132812 72.828125 -2.875 C 72.210938 -2 71.617188 -1.113281 71.046875 -0.21875 C 70.929688 0.0195312 70.929688 0.238281 71.046875 0.4375 C 71.171875 0.644531 71.375 0.75 71.65625 0.75 L 71.71875 0.75 C 72.457031 0.75 73.195312 0.734375 73.9375 0.703125 C 76.09375 0.617188 78.253906 0.515625 80.421875 0.390625 C 84.992188 0.179688 89.570312 0.015625 94.15625 -0.109375 C 125.875 -1.035156 157.535156 -0.0351562 189.140625 2.890625 Z M 59.96875 8.234375 C 60.164062 7.972656 60.390625 7.707031 60.640625 7.4375 C 61.046875 6.945312 61.460938 6.414062 61.890625 5.84375 C 62.316406 5.269531 62.695312 4.59375 63.03125 3.8125 C 62.65625 3.8125 62.3125 3.8125 62 3.8125 C 61.863281 3.8125 61.734375 3.8125 61.609375 3.8125 C 61.460938 3.8125 61.285156 3.8125 61.078125 3.8125 C 59.765625 3.976562 58.4375 4.144531 57.09375 4.3125 C 55.375 4.519531 53.660156 4.722656 51.953125 4.921875 C 47.972656 5.296875 43.367188 5.960938 38.140625 6.921875 C 32.921875 7.878906 27.800781 9.179688 22.78125 10.828125 C 17.757812 12.484375 13.632812 14.550781 10.40625 17.03125 C 9.3125 17.90625 8.3125 18.890625 7.40625 19.984375 C 4.71875 23.378906 4.988281 26.507812 8.21875 29.375 C 11.925781 32.375 15.75 34.019531 19.6875 34.3125 C 23.632812 34.601562 27.554688 33.910156 31.453125 32.234375 C 35.359375 30.566406 39.085938 28.332031 42.640625 25.53125 C 46.191406 22.726562 49.445312 19.785156 52.40625 16.703125 C 55.363281 13.617188 57.882812 10.796875 59.96875 8.234375 Z M 59.96875 8.234375 "/></g></g><g transform="translate(107.590135, 218.723695)"><g><path d="M 0.703125 -4.921875 C -1.066406 -4.921875 -1.953125 -5.84375 -1.953125 -7.6875 C -1.953125 -9.925781 -0.492188 -13.890625 2.421875 -19.578125 C 2.535156 -19.816406 2.738281 -19.9375 3.03125 -19.9375 C 4.195312 -19.9375 4.78125 -19.472656 4.78125 -18.546875 C 4.78125 -18.210938 4.679688 -17.800781 4.484375 -17.3125 C 4.410156 -17.1875 3.4375 -14.738281 1.5625 -9.96875 C 1.257812 -9.1875 1.109375 -8.609375 1.109375 -8.234375 C 1.109375 -7.828125 1.296875 -7.625 1.671875 -7.625 C 3.023438 -7.625 6.578125 -10.992188 12.328125 -17.734375 C 13.078125 -18.640625 13.8125 -19.09375 14.53125 -19.09375 C 15.59375 -19.09375 16.125 -18.703125 16.125 -17.921875 C 16.125 -17.628906 15.796875 -16.507812 15.140625 -14.5625 C 14.253906 -11.90625 13.8125 -10.375 13.8125 -9.96875 C 13.8125 -9.351562 14.015625 -9.046875 14.421875 -9.046875 C 15.441406 -9.046875 18.421875 -10.863281 23.359375 -14.5 C 23.640625 -14.738281 23.878906 -14.859375 24.078125 -14.859375 C 24.546875 -14.859375 24.78125 -14.472656 24.78125 -13.703125 C 24.78125 -13.492188 24.710938 -13.328125 24.578125 -13.203125 C 21.960938 -10.953125 19.738281 -9.242188 17.90625 -8.078125 C 16.226562 -6.992188 14.742188 -6.453125 13.453125 -6.453125 L 13.0625 -6.453125 C 11.144531 -6.867188 10.1875 -8.363281 10.1875 -10.9375 C 8.144531 -9.132812 6.453125 -7.679688 5.109375 -6.578125 C 3.765625 -5.472656 2.296875 -4.921875 0.703125 -4.921875 Z M 11.296875 -26.0625 C 11.410156 -26.257812 11.59375 -26.390625 11.84375 -26.453125 C 12.09375 -26.523438 12.335938 -26.5625 12.578125 -26.5625 C 12.648438 -26.519531 12.707031 -26.5 12.75 -26.5 C 12.84375 -26.5 12.945312 -26.484375 13.0625 -26.453125 C 13.664062 -26.316406 14 -26.128906 14.0625 -25.890625 C 14.132812 -25.648438 14.066406 -25.382812 13.859375 -25.09375 C 13.660156 -24.8125 13.441406 -24.546875 13.203125 -24.296875 C 12.585938 -23.628906 11.992188 -22.890625 11.421875 -22.078125 C 10.929688 -21.390625 10.488281 -20.84375 10.09375 -20.4375 C 9.707031 -20.03125 9.414062 -19.960938 9.21875 -20.234375 C 9.007812 -20.398438 8.894531 -20.59375 8.875 -20.8125 C 8.863281 -21.039062 8.894531 -21.285156 8.96875 -21.546875 C 9.132812 -22.273438 9.394531 -22.96875 9.75 -23.625 C 10.113281 -24.28125 10.5 -24.914062 10.90625 -25.53125 C 11.039062 -25.675781 11.171875 -25.851562 11.296875 -26.0625 Z M 11.296875 -26.0625 "/></g></g><g transform="translate(130.474965, 218.723695)"><g><path d="M 22.046875 -13.890625 C 22.347656 -13.515625 21.976562 -12.835938 20.9375 -11.859375 C 19.894531 -10.878906 18.789062 -10.050781 17.625 -9.375 C 16.457031 -8.707031 15.101562 -8.039062 13.5625 -7.375 C 12.539062 -6.925781 11.453125 -6.773438 10.296875 -6.921875 C 9.148438 -7.078125 8.578125 -7.773438 8.578125 -9.015625 C 8.578125 -10.265625 8.863281 -11.5 9.4375 -12.71875 C 10.007812 -13.976562 10.132812 -14.628906 9.8125 -14.671875 C 9.488281 -14.710938 8.816406 -14.40625 7.796875 -13.75 C 5.140625 -12.007812 2.671875 -10.015625 0.390625 -7.765625 C -0.222656 -7.023438 -1.003906 -6.617188 -1.953125 -6.546875 C -2.429688 -6.546875 -2.804688 -6.695312 -3.078125 -7 C -3.347656 -7.3125 -3.378906 -7.640625 -3.171875 -7.984375 C -1.535156 -11.015625 0.113281 -14.003906 1.78125 -16.953125 C 2.15625 -17.566406 2.710938 -17.945312 3.453125 -18.09375 C 3.765625 -18.144531 4.054688 -18.046875 4.328125 -17.796875 C 4.597656 -17.546875 4.734375 -17.265625 4.734375 -16.953125 C 4.691406 -16.660156 4.570312 -16.304688 4.375 -15.890625 C 4.28125 -15.648438 4.191406 -15.414062 4.109375 -15.1875 C 4.023438 -14.96875 3.992188 -14.785156 4.015625 -14.640625 C 4.046875 -14.492188 4.164062 -14.445312 4.375 -14.5 C 4.644531 -14.65625 4.921875 -14.816406 5.203125 -14.984375 C 5.910156 -15.390625 6.585938 -15.773438 7.234375 -16.140625 C 7.804688 -16.472656 8.410156 -16.769531 9.046875 -17.03125 C 9.679688 -17.289062 10.34375 -17.46875 11.03125 -17.5625 C 12.132812 -17.632812 12.921875 -17.382812 13.390625 -16.8125 C 13.859375 -16.238281 13.914062 -15.441406 13.5625 -14.421875 C 13.1875 -13.492188 12.796875 -12.578125 12.390625 -11.671875 C 11.890625 -10.816406 11.804688 -10.164062 12.140625 -9.71875 C 12.472656 -9.269531 14.019531 -9.78125 16.78125 -11.25 L 18.875 -12.46875 C 20.84375 -13.726562 21.898438 -14.203125 22.046875 -13.890625 Z M 22.046875 -13.890625 "/></g></g><g transform="translate(150.881998, 218.723695)"><g><path d="M 11.0625 -11.734375 C 10.070312 -10.554688 8.898438 -9.472656 7.546875 -8.484375 C 6.191406 -7.503906 4.660156 -6.84375 2.953125 -6.5 C 1.242188 -6.15625 -0.0820312 -6.28125 -1.03125 -6.875 C -1.976562 -7.46875 -2.164062 -8.785156 -1.59375 -10.828125 C -0.84375 -12.941406 0.175781 -14.957031 1.46875 -16.875 C 1.769531 -17.28125 2.195312 -17.566406 2.75 -17.734375 C 3.164062 -17.828125 3.523438 -17.753906 3.828125 -17.515625 C 4.128906 -17.285156 4.242188 -16.992188 4.171875 -16.640625 C 3.898438 -15.972656 3.59375 -15.304688 3.25 -14.640625 C 2.914062 -13.972656 2.695312 -13.535156 2.59375 -13.328125 C 1.9375 -12.140625 1.476562 -10.898438 1.21875 -9.609375 C 1.21875 -8.859375 2.210938 -8.804688 4.203125 -9.453125 C 6.191406 -10.109375 8.125 -11.300781 10 -13.03125 C 11.875 -14.769531 12.769531 -15.28125 12.6875 -14.5625 C 12.601562 -13.851562 12.0625 -12.910156 11.0625 -11.734375 Z M 6.203125 -21.046875 C 6.109375 -20.972656 5.914062 -20.882812 5.625 -20.78125 C 5.34375 -20.675781 5.039062 -20.597656 4.71875 -20.546875 C 4.394531 -20.503906 4.140625 -20.554688 3.953125 -20.703125 C 3.765625 -20.859375 3.753906 -21.160156 3.921875 -21.609375 C 4.222656 -22.378906 4.535156 -23.054688 4.859375 -23.640625 C 5.179688 -24.234375 5.601562 -24.878906 6.125 -25.578125 C 6.457031 -25.898438 6.816406 -26.070312 7.203125 -26.09375 C 7.597656 -26.125 7.925781 -26.023438 8.1875 -25.796875 C 8.445312 -25.566406 8.519531 -25.242188 8.40625 -24.828125 C 8 -23.367188 7.265625 -22.109375 6.203125 -21.046875 Z M 6.203125 -21.046875 "/></g></g><g transform="translate(161.739764, 218.723695)"><g><path d="M 4.421875 -6.59375 L 4.34375 -6.59375 C 1.65625 -6.632812 -0.113281 -7.234375 -0.96875 -8.390625 C -1.820312 -9.554688 -1.785156 -11.101562 -0.859375 -13.03125 C -0.078125 -14.5 0.90625 -15.78125 2.09375 -16.875 C 2.5 -17.238281 2.914062 -17.53125 3.34375 -17.75 C 3.769531 -17.976562 4.25 -18.09375 4.78125 -18.09375 C 5.101562 -18.144531 5.46875 -18.085938 5.875 -17.921875 C 6 -17.890625 6.128906 -17.847656 6.265625 -17.796875 C 6.578125 -17.847656 6.882812 -17.945312 7.1875 -18.09375 C 7.257812 -18.144531 7.359375 -18.191406 7.484375 -18.234375 C 8.097656 -18.472656 8.75 -18.578125 9.4375 -18.546875 C 9.71875 -18.546875 10.003906 -18.546875 10.296875 -18.546875 C 11.390625 -18.378906 12.210938 -17.914062 12.765625 -17.15625 C 13.328125 -16.40625 13.523438 -15.492188 13.359375 -14.421875 C 13.265625 -13.773438 13.0625 -13.160156 12.75 -12.578125 C 10.613281 -8.753906 7.894531 -6.757812 4.59375 -6.59375 Z M 8.828125 -16.5625 C 7.359375 -16.613281 6.050781 -16.191406 4.90625 -15.296875 C 3.769531 -14.398438 2.921875 -13.363281 2.359375 -12.1875 C 1.804688 -11.019531 1.65625 -10.0625 1.90625 -9.3125 C 2.15625 -8.5625 2.929688 -8.351562 4.234375 -8.6875 C 5.703125 -9.132812 6.992188 -9.96875 8.109375 -11.1875 C 9.234375 -12.414062 9.921875 -13.582031 10.171875 -14.6875 C 10.421875 -15.789062 9.972656 -16.414062 8.828125 -16.5625 Z M 8.828125 -16.5625 "/></g></g></g><path stroke-linecap="butt" transform="matrix(0, 0.75, -0.75, 0, 190.869909, 72.01835)" fill="none" stroke-linejoin="miter" d="M 0.00157437 4.49842 L 353.980764 4.49842 " stroke="#000000" stroke-width="9" stroke-opacity="1" stroke-miterlimit="4"/><g fill="#000000" fill-opacity="1"><g transform="translate(223.929805, 182.999988)"><g><path d="M 0.59375 -0.109375 L 0.59375 0 L 9.28125 0 L 10.078125 -2.71875 L 9.96875 -2.71875 C 9.390625 -0.96875 7.984375 -0.109375 5.921875 -0.109375 C 5.046875 -0.109375 4.5 -0.59375 4.5 -1.375 L 4.5 -5.375 L 6.296875 -5.375 C 7.40625 -5.34375 7.515625 -4.34375 7.515625 -4.0625 L 7.515625 -4.015625 L 7.625 -4.015625 L 7.625 -6.84375 L 7.515625 -6.84375 L 7.515625 -6.78125 C 7.515625 -6.5 7.40625 -5.515625 6.296875 -5.484375 L 4.5 -5.484375 L 4.515625 -10.234375 L 5.375 -10.234375 C 8.28125 -10.234375 8.90625 -8.453125 9.03125 -7.84375 L 9.0625 -7.625 L 9.15625 -7.6875 L 8.75 -10.34375 L 0.59375 -10.34375 L 0.59375 -10.234375 C 1.46875 -10.234375 2.015625 -9.75 2.015625 -8.96875 L 2.015625 -1.375 C 2.015625 -0.59375 1.46875 -0.109375 0.59375 -0.109375 Z M 0.59375 -0.109375 "/></g></g></g><g fill="#000000" fill-opacity="1"><g transform="translate(234.609831, 182.999988)"><g><path d="M 2.25 -8.609375 L 9.828125 0 L 9.953125 0 L 9.953125 -9.015625 C 9.984375 -10.296875 11.3125 -10.21875 11.3125 -10.21875 L 11.3125 -10.34375 L 8.46875 -10.34375 L 8.46875 -10.234375 C 8.46875 -10.21875 9.796875 -10.296875 9.84375 -9.015625 L 9.84375 -3.703125 L 3.96875 -10.34375 L 0.59375 -10.34375 L 0.59375 -10.21875 C 1.453125 -10.21875 1.9375 -9.796875 1.953125 -8.765625 L 1.953125 -1.3125 C 1.9375 -0.21875 0.921875 -0.125 0.65625 -0.109375 L 0.59375 -0.109375 L 0.59375 0 L 3.4375 0 L 3.4375 -0.109375 L 3.375 -0.109375 C 3.09375 -0.125 2.09375 -0.21875 2.0625 -1.3125 L 2.0625 -8.8125 Z M 2.25 -8.609375 "/></g></g></g><g fill="#000000" fill-opacity="1"><g transform="translate(246.525853, 182.999988)"><g><path d="M 5.84375 0 C 6.46875 0 7.0625 -0.109375 7.625 -0.3125 C 8.6875 -0.625 9.84375 -0.546875 9.875 -0.109375 L 9.984375 -0.109375 L 9.984375 -3.34375 C 10.015625 -4.09375 10.53125 -4.546875 11.359375 -4.546875 L 11.359375 -4.65625 L 6.1875 -4.65625 L 6.1875 -4.546875 C 6.953125 -4.546875 7.53125 -4.109375 7.53125 -3.328125 L 7.53125 -0.5 C 7.09375 -0.3125 6.328125 -0.140625 5.84375 -0.140625 C 5.09375 -0.140625 3.046875 -0.640625 3.03125 -5.25 C 3.046875 -9.875 5.09375 -10.375 5.84375 -10.375 C 6.078125 -10.375 6.59375 -10.3125 7.21875 -10.125 C 8.53125 -9.6875 9.234375 -8.84375 9.28125 -7.578125 L 9.390625 -7.578125 L 9.390625 -10.40625 L 9.28125 -10.40625 C 9.234375 -9.953125 8.75 -9.859375 7.625 -10.203125 C 7.0625 -10.40625 6.46875 -10.515625 5.84375 -10.515625 C 4.46875 -10.515625 3.171875 -9.96875 2.171875 -9.015625 C 1.21875 -8.046875 0.671875 -6.859375 0.59375 -5.5625 L 0.59375 -4.96875 C 0.75 -2.1875 3.078125 0 5.84375 0 Z M 5.84375 0 "/></g></g></g><g fill="#000000" fill-opacity="1"><g transform="translate(258.477879, 182.999988)"><g><path d="M 0.59375 -0.109375 L 0.59375 0 L 9.28125 0 L 10.078125 -2.71875 L 9.96875 -2.71875 C 9.390625 -0.96875 7.984375 -0.109375 5.921875 -0.109375 C 5.046875 -0.109375 4.5 -0.59375 4.5 -1.375 L 4.5 -5.375 L 6.296875 -5.375 C 7.40625 -5.34375 7.515625 -4.34375 7.515625 -4.0625 L 7.515625 -4.015625 L 7.625 -4.015625 L 7.625 -6.84375 L 7.515625 -6.84375 L 7.515625 -6.78125 C 7.515625 -6.5 7.40625 -5.515625 6.296875 -5.484375 L 4.5 -5.484375 L 4.515625 -10.234375 L 5.375 -10.234375 C 8.28125 -10.234375 8.90625 -8.453125 9.03125 -7.84375 L 9.0625 -7.625 L 9.15625 -7.6875 L 8.75 -10.34375 L 0.59375 -10.34375 L 0.59375 -10.234375 C 1.46875 -10.234375 2.015625 -9.75 2.015625 -8.96875 L 2.015625 -1.375 C 2.015625 -0.59375 1.46875 -0.109375 0.59375 -0.109375 Z M 0.59375 -0.109375 "/></g></g></g><g fill="#000000" fill-opacity="1"><g transform="translate(269.157905, 182.999988)"><g><path d="M 2.25 -8.609375 L 9.828125 0 L 9.953125 0 L 9.953125 -9.015625 C 9.984375 -10.296875 11.3125 -10.21875 11.3125 -10.21875 L 11.3125 -10.34375 L 8.46875 -10.34375 L 8.46875 -10.234375 C 8.46875 -10.21875 9.796875 -10.296875 9.84375 -9.015625 L 9.84375 -3.703125 L 3.96875 -10.34375 L 0.59375 -10.34375 L 0.59375 -10.21875 C 1.453125 -10.21875 1.9375 -9.796875 1.953125 -8.765625 L 1.953125 -1.3125 C 1.9375 -0.21875 0.921875 -0.125 0.65625 -0.109375 L 0.59375 -0.109375 L 0.59375 0 L 3.4375 0 L 3.4375 -0.109375 L 3.375 -0.109375 C 3.09375 -0.125 2.09375 -0.21875 2.0625 -1.3125 L 2.0625 -8.8125 Z M 2.25 -8.609375 "/></g></g></g><g fill="#000000" fill-opacity="1"><g transform="translate(281.073928, 182.999988)"><g><path d="M 0.59375 -0.109375 L 0.59375 0 L 5.921875 0 L 5.921875 -0.109375 C 5.046875 -0.109375 4.5 -0.59375 4.5 -1.375 L 4.5 -4.859375 L 8.609375 -4.859375 L 8.609375 -1.375 C 8.609375 -0.59375 8.0625 -0.109375 7.1875 -0.109375 L 7.1875 0 L 12.5 0 L 12.5 -0.109375 C 11.625 -0.109375 11.09375 -0.59375 11.09375 -1.375 L 11.09375 -8.96875 C 11.09375 -9.75 11.625 -10.234375 12.5 -10.234375 L 12.5 -10.34375 L 7.1875 -10.34375 L 7.1875 -10.234375 C 8.0625 -10.234375 8.609375 -9.75 8.609375 -8.96875 L 8.609375 -4.96875 L 4.5 -4.96875 L 4.5 -8.96875 C 4.5 -9.75 5.046875 -10.234375 5.921875 -10.234375 L 5.921875 -10.34375 L 0.59375 -10.34375 L 0.59375 -10.234375 C 1.46875 -10.234375 2.015625 -9.75 2.015625 -8.96875 L 2.015625 -1.375 C 2.015625 -0.59375 1.46875 -0.109375 0.59375 -0.109375 Z M 0.59375 -0.109375 "/></g></g></g><g fill="#000000" fill-opacity="1"><g transform="translate(294.17795, 182.999988)"><g><path d="M 0.59375 -0.109375 L 0.59375 0 L 9.28125 0 L 10.078125 -2.71875 L 9.96875 -2.71875 C 9.390625 -0.96875 7.984375 -0.109375 5.921875 -0.109375 C 5.046875 -0.109375 4.5 -0.59375 4.5 -1.375 L 4.5 -5.375 L 6.296875 -5.375 C 7.40625 -5.34375 7.515625 -4.34375 7.515625 -4.0625 L 7.515625 -4.015625 L 7.625 -4.015625 L 7.625 -6.84375 L 7.515625 -6.84375 L 7.515625 -6.78125 C 7.515625 -6.5 7.40625 -5.515625 6.296875 -5.484375 L 4.5 -5.484375 L 4.515625 -10.234375 L 5.375 -10.234375 C 8.28125 -10.234375 8.90625 -8.453125 9.03125 -7.84375 L 9.0625 -7.625 L 9.15625 -7.6875 L 8.75 -10.34375 L 0.59375 -10.34375 L 0.59375 -10.234375 C 1.46875 -10.234375 2.015625 -9.75 2.015625 -8.96875 L 2.015625 -1.375 C 2.015625 -0.59375 1.46875 -0.109375 0.59375 -0.109375 Z M 0.59375 -0.109375 "/></g></g></g><g fill="#000000" fill-opacity="1"><g transform="translate(304.857976, 182.999988)"><g><path d="M 0.59375 -0.109375 L 0.59375 0 L 5.921875 0 L 5.921875 -0.109375 C 5.046875 -0.109375 4.5 -0.59375 4.5 -1.375 L 4.5 -8.96875 C 4.5 -9.75 5.046875 -10.234375 5.921875 -10.234375 L 5.921875 -10.34375 L 0.59375 -10.34375 L 0.59375 -10.234375 C 1.46875 -10.234375 2.015625 -9.75 2.015625 -8.96875 L 2.015625 -1.375 C 2.015625 -0.59375 1.46875 -0.109375 0.59375 -0.109375 Z M 0.59375 -0.109375 "/></g></g></g><g fill="#000000" fill-opacity="1"><g transform="translate(311.37399, 182.999988)"><g><path d="M 0.59375 -0.109375 L 0.59375 0 L 5.78125 0 L 5.78125 -0.109375 C 4.890625 -0.109375 4.5 -0.5 4.5 -1.359375 L 4.5 -4.9375 L 5.875 -4.9375 C 6.734375 -4.9375 6.484375 -4.40625 7.203125 -2.5625 C 7.9375 -0.640625 8.796875 0 9.703125 0 L 11.859375 0 L 11.859375 -0.109375 C 10.78125 -0.109375 10.265625 -0.625 9.640625 -2.5625 C 9.0625 -4.40625 8.5 -4.9375 6.796875 -5.046875 C 8.25 -5.28125 9.5625 -6.078125 9.5625 -7.6875 C 9.5625 -9.609375 7.734375 -10.34375 5.796875 -10.34375 L 0.59375 -10.34375 L 0.59375 -10.234375 L 0.75 -10.234375 C 1.109375 -10.21875 2.015625 -10.0625 2.015625 -8.96875 L 2.015625 -1.375 C 2.015625 -0.5 1.5 -0.109375 0.59375 -0.109375 Z M 5.796875 -5.0625 L 4.5 -5.0625 L 4.5 -10.234375 L 5.796875 -10.234375 C 6.65625 -10.234375 7.109375 -9.125 7.109375 -7.6875 C 7.109375 -6.21875 6.65625 -5.0625 5.796875 -5.0625 Z M 5.796875 -5.0625 "/></g></g></g><g fill="#000000" fill-opacity="1"><g transform="translate(323.830013, 182.999988)"><g><path d="M 5.859375 0 C 8.765625 0 11.109375 -2.359375 11.109375 -5.25 C 11.109375 -8.140625 8.75 -10.515625 5.859375 -10.515625 C 2.96875 -10.515625 0.59375 -8.140625 0.59375 -5.25 C 0.59375 -2.40625 2.921875 0 5.859375 0 Z M 5.859375 -0.140625 C 5.109375 -0.140625 3.046875 -0.53125 3.046875 -5.25 C 3.0625 -9.875 5.109375 -10.375 5.859375 -10.375 C 6.609375 -10.375 8.65625 -9.875 8.65625 -5.25 C 8.65625 -0.53125 6.609375 -0.140625 5.859375 -0.140625 Z M 5.859375 -0.140625 "/></g></g></g><g fill="#000000" fill-opacity="1"><g transform="translate(213.863399, 199.499987)"><g><path d="M 0.59375 -0.125 L 0.59375 0 L 6.15625 0 C 7.015625 0 7.96875 -0.15625 8.53125 -0.453125 C 9.046875 -0.734375 9.484375 -1.140625 9.859375 -1.625 C 10.609375 -2.609375 11 -3.8125 11 -5.171875 C 11 -6.484375 10.609375 -7.75 9.859375 -8.71875 C 9.484375 -9.203125 9.03125 -9.59375 8.53125 -9.890625 C 7.984375 -10.203125 7.375 -10.34375 6.75 -10.34375 L 0.59375 -10.34375 L 0.59375 -10.234375 C 1.484375 -10.234375 2.015625 -9.78125 2.015625 -9 L 2.015625 -1.375 C 2.015625 -0.625 1.578125 -0.109375 0.59375 -0.125 Z M 6.234375 -0.125 C 5.40625 -0.125 4.515625 -0.15625 4.5 -1.375 L 4.5 -10.21875 L 6.484375 -10.21875 C 8.515625 -10.21875 8.5625 -6.484375 8.5625 -5.171875 C 8.5625 -3.8125 8.296875 -0.125 6.234375 -0.125 Z M 6.234375 -0.125 "/></g></g></g><g fill="#000000" fill-opacity="1"><g transform="translate(225.467421, 199.499987)"><g><path d="M 0.59375 -0.109375 L 0.59375 0 L 9.28125 0 L 10.078125 -2.71875 L 9.96875 -2.71875 C 9.390625 -0.96875 7.984375 -0.109375 5.921875 -0.109375 C 5.046875 -0.109375 4.5 -0.59375 4.5 -1.375 L 4.5 -5.375 L 6.296875 -5.375 C 7.40625 -5.34375 7.515625 -4.34375 7.515625 -4.0625 L 7.515625 -4.015625 L 7.625 -4.015625 L 7.625 -6.84375 L 7.515625 -6.84375 L 7.515625 -6.78125 C 7.515625 -6.5 7.40625 -5.515625 6.296875 -5.484375 L 4.5 -5.484375 L 4.515625 -10.234375 L 5.375 -10.234375 C 8.28125 -10.234375 8.90625 -8.453125 9.03125 -7.84375 L 9.0625 -7.625 L 9.15625 -7.6875 L 8.75 -10.34375 L 0.59375 -10.34375 L 0.59375 -10.234375 C 1.46875 -10.234375 2.015625 -9.75 2.015625 -8.96875 L 2.015625 -1.375 C 2.015625 -0.59375 1.46875 -0.109375 0.59375 -0.109375 Z M 0.59375 -0.109375 "/></g></g></g><g fill="#000000" fill-opacity="1"><g transform="translate(236.147447, 199.499987)"><g/></g></g><g fill="#000000" fill-opacity="1"><g transform="translate(243.347463, 199.499987)"><g><path d="M 2.4375 -0.28125 C 3.953125 0.28125 6.125 0.140625 7.140625 -0.875 C 7.625 -1.359375 7.984375 -2.21875 7.984375 -2.921875 C 7.984375 -5.03125 6.28125 -5.421875 4.3125 -6.640625 C 3.171875 -7.34375 2.609375 -7.90625 2.609375 -8.71875 C 2.609375 -9.625 3.0625 -10.3125 4.46875 -10.3125 C 5.015625 -10.3125 5.53125 -10.171875 5.953125 -9.9375 C 7.03125 -9.234375 7.09375 -7.25 7.09375 -7.25 L 7.203125 -7.25 L 7.203125 -10.09375 L 7.09375 -10.09375 L 7.09375 -10.046875 C 7.046875 -9.59375 6.09375 -9.984375 5.6875 -10.1875 C 5.3125 -10.375 4.890625 -10.421875 4.46875 -10.421875 C 3.03125 -10.421875 1.625 -9.640625 1.078125 -8.40625 C 0.46875 -7.03125 1.046875 -6.1875 2.84375 -4.84375 C 4.15625 -3.859375 6.640625 -3.0625 6.59375 -1.71875 C 6.5625 -0.8125 5.921875 -0.046875 4.171875 -0.046875 C 2.40625 -0.046875 0.71875 -1.609375 0.71875 -3.15625 L 0.71875 -3.4375 L 0.609375 -3.4375 L 0.609375 0 L 0.71875 0 L 0.71875 -0.015625 C 0.71875 -0.546875 0.8125 -0.90625 2.4375 -0.28125 Z M 2.4375 -0.28125 "/></g></g></g><g fill="#000000" fill-opacity="1"><g transform="translate(251.687482, 199.499987)"><g><path d="M 5.859375 0 C 8.765625 0 11.109375 -2.359375 11.109375 -5.25 C 11.109375 -8.140625 8.75 -10.515625 5.859375 -10.515625 C 2.96875 -10.515625 0.59375 -8.140625 0.59375 -5.25 C 0.59375 -2.40625 2.921875 0 5.859375 0 Z M 5.859375 -0.140625 C 5.109375 -0.140625 3.046875 -0.53125 3.046875 -5.25 C 3.0625 -9.875 5.109375 -10.375 5.859375 -10.375 C 6.609375 -10.375 8.65625 -9.875 8.65625 -5.25 C 8.65625 -0.53125 6.609375 -0.140625 5.859375 -0.140625 Z M 5.859375 -0.140625 "/></g></g></g><g fill="#000000" fill-opacity="1"><g transform="translate(263.399502, 199.499987)"><g><path d="M 0.59375 -0.109375 L 0.59375 0 L 5.921875 0 L 5.921875 -0.109375 C 5.046875 -0.109375 4.5 -0.59375 4.5 -1.375 L 4.5 -5.375 L 6.3125 -5.375 C 7.421875 -5.34375 7.515625 -4.34375 7.53125 -4.0625 L 7.53125 -4.015625 L 7.625 -4.015625 L 7.625 -6.84375 L 7.53125 -6.84375 L 7.53125 -6.78125 C 7.515625 -6.5 7.421875 -5.515625 6.3125 -5.484375 L 4.5 -5.484375 L 4.5 -8.96875 C 4.5 -9.03125 4.5 -9.09375 4.515625 -9.15625 L 4.515625 -10.234375 L 5.375 -10.234375 C 8.296875 -10.234375 8.90625 -8.453125 9.03125 -7.84375 L 9.078125 -7.625 L 9.171875 -7.6875 L 8.765625 -10.34375 L 0.59375 -10.34375 L 0.59375 -10.234375 C 1.46875 -10.234375 2.015625 -9.75 2.015625 -8.96875 L 2.015625 -1.375 C 2.015625 -0.59375 1.46875 -0.109375 0.59375 -0.109375 Z M 0.59375 -0.109375 "/></g></g></g><g fill="#000000" fill-opacity="1"><g transform="translate(273.167526, 199.499987)"><g><path d="M 3.078125 -0.109375 L 3.078125 0 L 8.40625 0 L 8.40625 -0.109375 C 7.53125 -0.109375 6.984375 -0.59375 6.984375 -1.375 L 6.984375 -10.234375 L 7.09375 -10.234375 C 10 -10.234375 10.625 -8.453125 10.734375 -7.84375 L 10.78125 -7.625 L 10.875 -7.6875 L 10.46875 -10.34375 L 1.015625 -10.34375 L 0.59375 -7.6875 L 0.703125 -7.625 L 0.734375 -7.84375 C 0.859375 -8.453125 1.46875 -10.234375 4.375 -10.234375 L 4.5 -10.234375 L 4.5 -1.375 C 4.5 -0.59375 3.953125 -0.109375 3.078125 -0.109375 Z M 3.078125 -0.109375 "/></g></g></g><g fill="#000000" fill-opacity="1"><g transform="translate(284.639552, 199.499987)"><g><path d="M 2.21875 -8.984375 L 5.8125 -0.015625 L 8.640625 -7.109375 L 11.5 -0.015625 L 15.0625 -8.96875 C 15.375 -9.765625 16 -10.234375 16.9375 -10.234375 L 16.9375 -10.34375 L 14.09375 -10.34375 L 14.09375 -10.234375 C 14.953125 -10.234375 15.25 -9.765625 14.9375 -8.96875 L 12.703125 -3.34375 L 10.5 -8.96875 C 10.1875 -9.765625 10.421875 -10.234375 11.140625 -10.234375 L 11.140625 -10.34375 L 6.28125 -10.34375 L 6.28125 -10.234375 C 7.03125 -10.203125 7.53125 -9.875 7.890625 -8.96875 L 8.578125 -7.265625 L 7.03125 -3.34375 L 4.84375 -8.96875 C 4.515625 -9.796875 4.71875 -10.21875 5.46875 -10.234375 L 5.46875 -10.34375 L 0.59375 -10.34375 L 0.59375 -10.234375 C 1.359375 -10.21875 1.890625 -9.796875 2.21875 -8.984375 Z M 2.21875 -8.984375 "/></g></g></g><g fill="#000000" fill-opacity="1"><g transform="translate(302.183584, 199.499987)"><g><path d="M 0.59375 -0.109375 L 0.59375 0 L 3.4375 0 L 3.4375 -0.109375 L 3.390625 -0.109375 C 3.1875 -0.125 2.15625 -0.234375 3.078125 -2.25 L 3.46875 -3.109375 L 7.453125 -3.109375 L 8.25 -1.375 C 8.765625 -0.21875 7.890625 -0.125 7.65625 -0.109375 L 7.59375 -0.109375 L 7.59375 0 L 12.46875 0 L 12.46875 -0.109375 L 12.40625 -0.109375 C 12.171875 -0.125 11.25 -0.234375 10.734375 -1.375 L 6.640625 -10.34375 L 5.40625 -7.609375 L 2.953125 -2.25 C 2.140625 -0.453125 1.21875 -0.15625 0.796875 -0.109375 Z M 7.40625 -3.21875 L 3.515625 -3.21875 L 5.453125 -7.46875 Z M 7.40625 -3.21875 "/></g></g></g><g fill="#000000" fill-opacity="1"><g transform="translate(315.251614, 199.499987)"><g><path d="M 0.59375 -0.109375 L 0.59375 0 L 5.78125 0 L 5.78125 -0.109375 C 4.890625 -0.109375 4.5 -0.5 4.5 -1.359375 L 4.5 -4.9375 L 5.875 -4.9375 C 6.734375 -4.9375 6.484375 -4.40625 7.203125 -2.5625 C 7.9375 -0.640625 8.796875 0 9.703125 0 L 11.859375 0 L 11.859375 -0.109375 C 10.78125 -0.109375 10.265625 -0.625 9.640625 -2.5625 C 9.0625 -4.40625 8.5 -4.9375 6.796875 -5.046875 C 8.25 -5.28125 9.5625 -6.078125 9.5625 -7.6875 C 9.5625 -9.609375 7.734375 -10.34375 5.796875 -10.34375 L 0.59375 -10.34375 L 0.59375 -10.234375 L 0.75 -10.234375 C 1.109375 -10.21875 2.015625 -10.0625 2.015625 -8.96875 L 2.015625 -1.375 C 2.015625 -0.5 1.5 -0.109375 0.59375 -0.109375 Z M 5.796875 -5.0625 L 4.5 -5.0625 L 4.5 -10.234375 L 5.796875 -10.234375 C 6.65625 -10.234375 7.109375 -9.125 7.109375 -7.6875 C 7.109375 -6.21875 6.65625 -5.0625 5.796875 -5.0625 Z M 5.796875 -5.0625 "/></g></g></g><g fill="#000000" fill-opacity="1"><g transform="translate(327.707638, 199.499987)"><g><path d="M 0.59375 -0.109375 L 0.59375 0 L 9.28125 0 L 10.078125 -2.71875 L 9.96875 -2.71875 C 9.390625 -0.96875 7.984375 -0.109375 5.921875 -0.109375 C 5.046875 -0.109375 4.5 -0.59375 4.5 -1.375 L 4.5 -5.375 L 6.296875 -5.375 C 7.40625 -5.34375 7.515625 -4.34375 7.515625 -4.0625 L 7.515625 -4.015625 L 7.625 -4.015625 L 7.625 -6.84375 L 7.515625 -6.84375 L 7.515625 -6.78125 C 7.515625 -6.5 7.40625 -5.515625 6.296875 -5.484375 L 4.5 -5.484375 L 4.515625 -10.234375 L 5.375 -10.234375 C 8.28125 -10.234375 8.90625 -8.453125 9.03125 -7.84375 L 9.0625 -7.625 L 9.15625 -7.6875 L 8.75 -10.34375 L 0.59375 -10.34375 L 0.59375 -10.234375 C 1.46875 -10.234375 2.015625 -9.75 2.015625 -8.96875 L 2.015625 -1.375 C 2.015625 -0.59375 1.46875 -0.109375 0.59375 -0.109375 Z M 0.59375 -0.109375 "/></g></g></g></svg>